# xmcd
#
# Track frame offsets:
#	150
#	19360
#	36587
#	55267
#	74470
#	93320
#	106560
#	136145
#	150240
#	164755
#	182360
#	193712
#	215252
#	236470
#	251317
#	271995
#
# Disc length: 3829
#
# Revision: 6
# Processed by: cddbd v1.5.1PL0 Copyright (c) Steve Scherf et al.
# Submitted via: ExactAudioCopy v0.95a5
# Normalized: r5:DSETVAR1
#
DISCID=d30ef310
DTITLE=Various Artist - Antone's- Bringing You the Best In Blues
DYEAR=1989
DGENRE=Blues
TTITLE0=Buddy Guy - Look On Yonder's Wall
TTITLE1=Otis Rush - Double Trouble
TTITLE2=Ronnie Earl - Midnight Clothes
TTITLE3=Memphis Slim and Matt Murphy - Havin' Fun
TTITLE4=Eddie Taylor - Bad Boy
TTITLE5=Angela Strehli - It Hurts Me Too
TTITLE6=James Cotton - It Ain't Right
TTITLE7=Doug Sahm - I Don't Believe
TTITLE8=Doug Sahm - What's Your Name
TTITLE9=Lou Ann Barton - Sugar Coated Love
TTITLE10=Lou Ann Barton - Mean Mean Man
TTITLE11=Silent Partners - Two Steps From the Blues
TTITLE12=Silent Partners - If It's All Night, It's All Right
TTITLE13=Marcia Ball, Lou Ann Barton, Angela Strehli - Fool In Love
TTITLE14=Matt Murphy - Way Down South
TTITLE15=Jimmy Rogers - Chicago Bound
EXTD=LABEL =Antone's Records and Tapes\nID =ANT9901CD\nUPC =04989-19901-20\nCOPYRIGHT =1989
EXTT0=
EXTT1=
EXTT2=
EXTT3=
EXTT4=
EXTT5=
EXTT6=
EXTT7=
EXTT8=
EXTT9=
EXTT10=
EXTT11=
EXTT12=
EXTT13=
EXTT14=
EXTT15=
PLAYORDER=
